<svg xmlns="http://www.w3.org/2000/svg" fill="none" viewBox="0 0 155 190"><path fill="#fff" d="M111.18 161.28c-3.43-4.41-4.9-10.68-5.02-11.14a36.8 36.8 0 0 1-1.23-9.93 2.3 2.3 0 0 1-.11-.74c-.1-.25-.17-.52-.18-.79-.04-.1-.09-.21-.13-.31a2.2 2.2 0 0 1-.04-.8c0-.03-.02-.05-.03-.08-.02-.18-.05-.35-.07-.53 0-.12.03-.24.05-.35v-.01c-2.76.38-4.52.61-4.52.61l4.52-.61s-.2-2.54-.15-5.09c.02-.98.07-1.78.11-2.31.15-.46.19-.77.2-.96 0-.04 0-.11.02-.22.02-.22.05-.32.09-.57 0-.06.02-.16.04-.28.03-.07.07-.13.1-.2v-.05c-.01-.3.03-.61.13-.89.02-.27.07-.54.2-.77-1.32-1.69-2.8-3.19-3.74-2.83-2.04-4.7-12.3-3.64-26.76-4.26-5.98-.26-14.7-.88-25.36-2.61-.02.06-.04.12-.09.16 0 0-.02.01-.02.02.02-.03-.03.04-.04.05-.03.03-.07.05-.1.08 0 0-.11.05-.12.05h-.12c-5.34 9.59-10.97 16.18-15.17 20.45-12.64 12.85-19.83 17.69-19.83 17.69C7.78 158.3.33 162.59.83 167.98c.02.19.03.32.07.48 1.61 6.65 27.63-.13 54.58 7.53 17.68 5.02 15.76 10.58 30.26 13.04 24.41 4.15 48.45-8.42 47.89-14.65-.43-4.74-14.09-2.38-22.44-13.13z"/><path fill="#fff" d="M151.62 51.03c-1.53-.49-2.38 1.25-6.93 2.37-1.94.48-5.46 1.3-9.07-.14-.59-.23-2-.86-3.86-2.56-3.45-3.15-4.8-6.65-6.37-10.35-3.38-7.98-5.07-11.97-7.02-14.32-3.42-4.13-7.77-6.9-9.68-8.11-2.62-1.67-4.8-2.7-5.74-3.13-2.92-1.33-7.36-2.98-13.13-3.76 1.68.16 3.53.13 5.49-.23 5.26-.96 11.36-4.29 11.01-6.77-.38-2.64-8.39-3.6-10.16-3.81C93.62-.09 91.66 0 91 .04 79.17.71 70.33 6.57 70.33 6.57c-5.19 3.44-8.74 7.41-13.97 16.51-6.96 12.11-11 19.14-13.97 30.48-2.88 11.02-6.29 24.05-.42 36.84.72 1.57 1.33 2.59 1.87 3.35 1.02 1.44 1.85 2.41 2.15 2.75 1.62 1.84 4.12 5.95 4.54 10.56.41 4.47-1.26 8.11-2.39 10.06v.03c0 .04-.01.09-.02.13 0 .02-.02.04-.03.06 0 .02 0 .05-.01.07 9.04.95 18.35 2.08 27.91 3.43 10.02 1.41 19.7 2.98 29.04 4.66.04-.1.1-.19.15-.28q.015-.255.09-.51c-.02-.33.05-.64.17-.94 0-.31.07-.62.2-.91.52-4.9 2.19-12.46 7.88-18.09 2.51-2.48 5.48-4.27 5.49-4.27 6.79-3.87 12.53-2.45 21.61-10.98 2.08-1.95 11.62-11.27 13.13-24.98.63-5.75.35-12.76-2.12-13.55z"/><path fill="#fff" d="M105.62 122.89c-.95 2.84-1.35 5.32-1.52 7.17-.35 3.81.08 6.72.42 8.98.22 1.48.38 2.01.4 2.01.06-.01-.29-4.52-.23-5.23 0-.01.01-.13.02-.29.02-.3.04-.55.05-.73"/><path fill="#171717" d="M107.803 51.58c2.961-2.478 2.347-8.088-1.37-12.532-3.718-4.443-9.132-6.037-12.093-3.56-2.96 2.478-2.347 8.088 1.37 12.532 3.719 4.443 9.133 6.037 12.093 3.56"/></svg>