<svg xmlns="http://www.w3.org/2000/svg" width="60" height="60" stroke-linecap="round" stroke-linejoin="round" style="background-color:transparent" viewBox="245.113 920.575 427.887 243.637"><path fill="#7b7b7b" d="M390.105 1072.675q.843-3.665 4.025-12.485t7.591-20.21 7.756-21.643 5.25-17.115 3.21-11.841 2.277-8.68 2.058-6.033 1.206-2.642.306-.575.436-.485.538-.367.61-.227.648-.075.647.082.607.235.535.373.429.49.3.58.151.633-.004.652-.202 3.736.74 10.447 2.68 15.442 4.5 17.24 4.708 15.419 3.957 12.21 3.75 10.937-.112 9.68-7.483 4.138-15-3.794-19.606-8.171-20.974-10.047-18.373-9.375-12.953-6.585-9.132-6.126.42-5.552 7.594-1.92 6.825.473 7.448.495 7.329-.252 3.629-.38.62.18.56.321.465.447.346.545.205.611.052.643-.102.638-.252.593-.387.517-.5.408-.582.278-.632.13-4.323-1.288-8.837-7.821-8.278-13.816-4.947-13.52-1.238-11.036 2.266-9.67 3.77-8.308 3.476-5.813 4.205-4.702 2.732-2.592.511-.413.595-.279.644-.127.657.03.63.186.567.331.471.458.348.557.205.625.05.655-.11.648-.26.603-2.552 6.114-7.029 16.956-11.599 26.452-14.359 31.788-15.066 34.017-13.315 29.683-10.175 20.76-9.285 12.882-7.341-2.325-3.756-12.458-1.62-11.447 1.147-12.118 17.067-13.399 41.926-9.439 62.66-1.629 71.872 3.691 62.117 5.354 44.46 4.767 41.385 4.916 23.738 2.88.663.316.527.51.337.65.112.726-.126.722-.35.645-.538.499-.668.301-.73.072-.715-.165-.625-.384-.469-.564-.265-.684-.032-.733.203-.705.418-.602.588-.438.698-.228.733.008.693.241.58.45.405.611.189.709-.047.732-.279.678-.48.555-.633.371-.717.15-.371.017-23.38-2.777-41.342-4.91-44.364-4.757-61.952-5.342-71.478-3.692-61.733 1.459-40.466 8.33-15.632 11.117-.556 10.486 1.517 10.853 2.566 10.842 3.074 1.976 6.063-11.812 10.056-20.618 13.247-29.677 15.005-34.08 14.228-31.769 11.287-25.996 7.184-17.645 2.992-7.168.511-.412.595-.279.644-.127.657.03.63.186.567.331.471.458.348.557.205.625.05.655-.11.648-.26.603-2.888 2.486-4.263 4.126-3.21 5.25-3.44 7.415-2.03 8.153 1.159 9.724 4.679 12.44 7.981 12.885 6.74 6.78 2.345.723.62.178.56.322.465.447.346.545.205.611.052.643-.102.638-.252.593-.387.517-.5.408-.582.278-.632.13-3.62.181-7.428.016-7.444-.386-6.443-.318-5.445.41.425.878 8.13 3.06 12.973 6.587 18.264 9.314 20.765 9.943 18.857 7.963 13.822 3.985 5.048-1.328-1.785-6.913-3.824-10.728-4.058-12.274-4.858-15.59-4.73-17.619-2.883-15.465-.806-11.464.3-4.894.305-.575.436-.485.538-.367.61-.227.648-.075.647.082.607.235.535.373.429.49.3.58.151.633-.004.652-1.385 2.613-2.246 5.988-2.134 8.738-3.055 12.05-5.066 17.458-7.417 21.832-6.945 19.787-3.234 12.126-.73 4.416-.78 1.225-1.19.832-1.419.314-1.43-.252-1.225-.78-.832-1.19-.315-1.419-.016-.74.843-3.665" opacity=".5"/></svg>