<svg xmlns="http://www.w3.org/2000/svg" direction="ltr" width="60" height="60"
    viewBox="245.11250951955736 920.5748490929199 427.88749048044264 243.63656808942721" stroke-linecap="round"
    stroke-linejoin="round" style="background-color: transparent;   " encoding="UTF-8&quot;">
    <defs />
    <g transform="matrix(1, 0, 0, 1, 393, 1077)" opacity="0.5">
        <path
            d="M-2.8949,-4.3247 Q-2.0522,-7.9899 1.1302,-16.8097 T8.7211,-37.0191 16.4771,-58.6626 21.7273,-75.778 24.9376,-87.6193 27.2144,-96.2981 29.2717,-102.3323 30.4783,-104.9735 30.7845,-105.5487 31.2196,-106.034 31.7581,-106.4009 32.3688,-106.6284 33.0161,-106.7031 33.6626,-106.6207 34.2705,-106.3859 34.8046,-106.0125 35.2338,-105.5222 35.5332,-104.9433 35.6853,-104.3097 35.6814,-103.658 35.4788,-99.9221 36.2181,-89.4753 38.8985,-74.0332 43.3998,-56.7928 48.107,-41.3744 52.0645,-29.1645 55.8148,-18.2273 55.7025,-8.5469 48.2187,-4.4087 33.2193,-8.2029 13.613,-16.3742 -7.3615,-26.421 -25.7335,-35.7964 -38.6865,-42.3812 -47.8192,-48.5066 -47.3999,-54.0589 -39.8049,-55.9784 -32.9795,-55.5064 -25.532,-55.0105 -18.203,-55.2627 -14.574,-55.6423 -13.954,-55.4636 -13.3948,-55.1417 -12.9289,-54.6953 -12.5834,-54.1504 -12.3783,-53.5386 -12.3256,-52.8955 -12.4283,-52.2585 -12.6805,-51.6646 -13.0675,-51.1483 -13.5668,-50.7396 -14.1495,-50.4623 -14.7815,-50.3325 -19.1043,-51.6205 -27.9407,-59.4413 -36.2192,-73.2567 -41.1657,-86.7771 -42.4042,-97.8135 -40.1383,-107.4823 -36.3681,-115.7914 -32.8924,-121.6045 -28.6868,-126.3065 -25.9551,-128.8985 -25.444,-129.3112 -24.8489,-129.5896 -24.2045,-129.7175 -23.5482,-129.6875 -22.9181,-129.5012 -22.351,-129.1696 -21.8796,-128.7119 -21.5316,-128.1547 -21.3269,-127.5304 -21.2777,-126.8753 -21.3866,-126.2274 -21.6475,-125.6244 -24.1994,-119.5099 -31.228,-102.5541 -42.8268,-76.102 -57.1856,-44.3141 -72.2518,-10.2971 -85.5669,19.3856 -95.7417,40.1466 -105.0269,53.0282 -112.3683,50.7029 -116.1243,38.2453 -117.7449,26.7984 -116.5972,14.6801 -99.53,1.2813 -57.6039,-8.1579 5.0561,-9.787 76.9283,-6.0957 139.0455,-0.7421 183.5056,4.0249 224.8905,8.9413 248.6281,11.8219 249.2907,12.1365 249.8182,12.6462 250.1553,13.2976 250.2667,14.0226 250.1409,14.7452 249.7909,15.3898 249.2533,15.8889 248.5846,16.1902 247.8546,16.2622 247.1399,16.0973 246.5152,15.7129 246.046,15.1491 245.7814,14.465 245.749,13.7323 245.9523,13.0275 246.3701,12.4246 246.9584,11.9866 247.6559,11.7594 248.3893,11.7668 249.082,12.0081 249.6614,12.4578 250.0669,13.0691 250.2559,13.7778 250.2088,14.5098 249.9304,15.1884 249.4499,15.7426 248.8175,16.1143 248.0996,16.2647 247.7287,16.281 224.3485,13.5039 183.0074,8.5931 138.6431,3.8367 76.6911,-1.5047 5.2125,-5.1974 -56.5198,-3.738 -96.9855,4.5928 -112.6182,15.7092 -113.1744,26.1952 -111.6565,37.0479 -109.0908,47.8897 -106.0175,49.866 -99.9542,38.0541 -89.8979,17.4364 -76.6508,-12.2407 -61.6462,-46.3207 -47.4179,-78.0897 -36.1309,-104.0858 -28.9472,-121.7311 -25.9551,-128.8985 -25.444,-129.3112 -24.8489,-129.5896 -24.2045,-129.7175 -23.5482,-129.6875 -22.9181,-129.5012 -22.351,-129.1696 -21.8796,-128.7119 -21.5316,-128.1547 -21.3269,-127.5304 -21.2777,-126.8753 -21.3866,-126.2274 -21.6475,-125.6244 -24.5352,-123.1382 -28.7985,-119.0123 -32.0072,-113.7629 -35.4479,-106.3466 -37.4785,-98.1939 -36.3193,-88.4696 -31.6403,-76.0293 -23.6589,-63.1453 -16.9183,-56.3659 -14.574,-55.6423 -13.954,-55.4636 -13.3948,-55.1417 -12.9289,-54.6953 -12.5834,-54.1504 -12.3783,-53.5386 -12.3256,-52.8955 -12.4283,-52.2585 -12.6805,-51.6646 -13.0675,-51.1483 -13.5668,-50.7396 -14.1495,-50.4623 -14.7815,-50.3325 -18.4001,-50.151 -25.8291,-50.1353 -33.2727,-50.5205 -39.7165,-50.8385 -45.1609,-50.4282 -44.7361,-49.5514 -36.6059,-46.4919 -23.6334,-39.9039 -5.3694,-30.5896 15.396,-20.6473 34.2531,-12.6835 48.0748,-8.6989 53.1227,-10.0275 51.3378,-16.9405 47.5141,-27.6681 43.4563,-39.9416 38.598,-55.5314 33.868,-73.151 30.985,-88.6158 30.1788,-100.0798 30.4783,-104.9735 30.7845,-105.5487 31.2196,-106.034 31.7581,-106.4009 32.3688,-106.6284 33.0161,-106.7031 33.6626,-106.6207 34.2705,-106.3859 34.8046,-106.0125 35.2338,-105.5222 35.5332,-104.9433 35.6853,-104.3097 35.6814,-103.658 34.2961,-101.0455 32.0504,-95.057 29.916,-86.319 26.8608,-74.2698 21.7954,-56.8112 14.3785,-34.9789 7.4325,-15.1919 4.1991,-3.066 3.469,1.3496 2.6885,2.5745 1.4986,3.4073 0.0805,3.7214 -1.3498,3.469 -2.5746,2.6883 -3.4074,1.4984 -3.7215,0.0803 -3.7375,-0.6597 -2.8949,-4.3247 Z"
            fill="#7b7b7b" stroke-linecap="round" />
    </g>
</svg>